<svg width="28" height="28" viewBox="0 0 28 28" fill="none" xmlns="http://www.w3.org/2000/svg">
<path d="M5.83333 25.6666H22.1667C23.4535 25.6666 24.5 24.6201 24.5 23.3333V6.99992C24.5 5.71309 23.4535 4.66659 22.1667 4.66659H19.8333V2.33325H17.5V4.66659H10.5V2.33325H8.16667V4.66659H5.83333C4.5465 4.66659 3.5 5.71309 3.5 6.99992V23.3333C3.5 24.6201 4.5465 25.6666 5.83333 25.6666ZM12.8333 21.4829L8.5085 17.1581L10.1582 15.5084L12.8333 18.1836L17.8418 13.1751L19.4915 14.8248L12.8333 21.4829ZM5.83333 8.16659H22.1667V10.4999H5.83333V8.16659Z" fill="#8F49DE"/>
</svg>
