<svg width="20" height="20" viewBox="0 0 20 20" fill="none" xmlns="http://www.w3.org/2000/svg">
<path d="M18.281 9.02344L14.7497 11.9609L15.8669 16.5C15.9183 16.6903 15.9253 16.8898 15.8875 17.0832C15.8497 17.2766 15.7681 17.4588 15.6489 17.6157C15.5297 17.7727 15.3761 17.9002 15.1999 17.9884C15.0237 18.0767 14.8296 18.1235 14.6325 18.125C14.3912 18.1239 14.1552 18.0534 13.9528 17.9219L10.0075 15.4297H9.99191L6.32785 17.75C6.09115 17.8993 5.81528 17.9746 5.53554 17.9663C5.25579 17.9579 4.9849 17.8663 4.75754 17.7031C4.52329 17.5322 4.34588 17.2948 4.24835 17.0217C4.15082 16.7486 4.13769 16.4525 4.21066 16.1719L5.26535 12.0234L1.71847 9.02344C1.51724 8.85529 1.37099 8.63072 1.29859 8.37868C1.22618 8.12664 1.23093 7.85869 1.31222 7.60938C1.39139 7.36383 1.54242 7.14768 1.74576 6.9889C1.94911 6.83012 2.19543 6.73601 2.45285 6.71875L7.06222 6.42188L8.81222 2.0625C8.90607 1.82375 9.06943 1.61867 9.28115 1.47382C9.49287 1.32896 9.74319 1.25099 9.99972 1.25C10.2563 1.25099 10.5066 1.32896 10.7183 1.47382C10.93 1.61867 11.0934 1.82375 11.1872 2.0625L12.906 6.39844L17.5466 6.71875C17.8043 6.73496 18.0511 6.82868 18.2547 6.98761C18.4582 7.14654 18.609 7.36327 18.6872 7.60938C18.7685 7.85869 18.7733 8.12664 18.7009 8.37868C18.6285 8.63072 18.4822 8.85529 18.281 9.02344Z" fill="#F5C518"/>
</svg>
