<svg width="40" height="40" viewBox="0 0 40 40" fill="none" xmlns="http://www.w3.org/2000/svg">
<rect width="40" height="40" rx="20" fill="#82829B"/>
<path d="M28.1168 27.1876C28.0634 27.2833 27.9851 27.3629 27.8903 27.4179C27.7954 27.4729 27.6874 27.5013 27.5778 27.5001H12.4215C12.3119 27.5013 12.2039 27.4729 12.109 27.4179C12.0142 27.3629 11.9359 27.2833 11.8825 27.1876C11.8252 27.0934 11.7949 26.9853 11.7949 26.8751C11.7949 26.7648 11.8252 26.6567 11.8825 26.5626C13.0487 24.5536 14.9153 23.0458 17.1246 22.3282C16.0657 21.6985 15.2427 20.7385 14.7823 19.5957C14.3218 18.4529 14.2493 17.1906 14.5758 16.0026C14.9023 14.8146 15.6099 13.7667 16.5897 13.0198C17.5696 12.2729 18.7676 11.8684 19.9996 11.8684C21.2317 11.8684 22.4297 12.2729 23.4095 13.0198C24.3894 13.7667 25.097 14.8146 25.4235 16.0026C25.75 17.1906 25.6775 18.4529 25.217 19.5957C24.7565 20.7385 23.9336 21.6985 22.8746 22.3282C25.0839 23.0458 26.9506 24.5536 28.1168 26.5626C28.1741 26.6567 28.2044 26.7648 28.2044 26.8751C28.2044 26.9853 28.1741 27.0934 28.1168 27.1876Z" fill="white"/>
</svg>
