<svg width="24" height="24" viewBox="0 0 24 24" fill="none" xmlns="http://www.w3.org/2000/svg">
<g clip-path="url(#clip0_7869_2578)">
<g clip-path="url(#clip1_7869_2578)">
<path d="M18.9408 14.2273C19.2516 14.7656 19.2276 15.3609 18.6898 15.6715C18.1514 15.9823 17.6239 15.7053 17.3131 15.167L11.872 5.74266C11.5614 5.2048 11.5853 4.60936 12.1236 4.29857C12.6615 3.98803 13.189 4.26495 13.4996 4.80294L18.9408 14.2273Z" fill="#60606C"/>
<path d="M9.35844 18.3078L7.2124 18.8936L11.2741 21.9064C11.6619 22.1943 12.2095 22.113 12.4975 21.725C12.7851 21.3369 12.7037 20.7894 12.3159 20.5017L9.35844 18.3078Z" fill="#60606C"/>
<path d="M2.59199 14.7441L4.87817 18.7038C4.87817 18.7038 10.8202 17.634 16.5945 15.5118L11.2143 6.19315C6.48937 10.1327 2.59181 14.7437 2.59181 14.7437L2.59199 14.7441Z" fill="#60606C"/>
<path d="M4.18946 19.1021L3.53406 19.4805C3.17852 19.6857 2.68279 19.4936 2.42707 19.0507L1.06671 16.6944C0.810983 16.2515 0.89202 15.7262 1.24788 15.5207L1.90329 15.1423L4.18946 19.1021Z" fill="#60606C"/>
<path d="M22.3951 12.5865C22.2582 12.6655 22.095 12.7017 21.9262 12.6786C21.5207 12.6245 21.2368 12.2525 21.2908 11.847C21.2939 11.8213 21.6121 9.25068 20.3788 7.11454C19.1372 4.96402 16.7614 3.96914 16.738 3.95916C16.3592 3.80421 16.1785 3.37119 16.334 2.99271C16.489 2.6141 16.922 2.43323 17.3001 2.58894C17.4171 2.63648 20.1702 3.79003 21.6617 6.37346C23.1533 8.95688 22.7758 11.9184 22.7587 12.0434C22.7273 12.2798 22.587 12.4753 22.3949 12.5862L22.3951 12.5865Z" fill="#60606C"/>
<path d="M19.6401 11.684C19.5033 11.763 19.34 11.7991 19.1708 11.7764C18.7664 11.722 18.4825 11.3502 18.5357 10.9453C18.5391 10.9165 18.698 9.5645 18.0573 8.45492C17.4132 7.33928 16.1526 6.80085 16.1398 6.79548C15.763 6.63793 15.584 6.20496 15.7406 5.82797C15.8971 5.4508 16.3272 5.27114 16.7048 5.42592C16.7753 5.45473 18.4384 6.15174 19.3406 7.71431C20.2427 9.27687 20.0144 11.0658 20.0043 11.1408C19.9725 11.3777 19.8319 11.5733 19.6402 11.684L19.6401 11.684Z" fill="#60606C"/>
</g>
</g>
<defs>
<clipPath id="clip0_7869_2578">
<rect width="24" height="24" fill="white"/>
</clipPath>
<clipPath id="clip1_7869_2578">
<rect width="32" height="32" fill="white" transform="translate(-8 10) rotate(-30)"/>
</clipPath>
</defs>
</svg>
