<svg width="28" height="28" viewBox="0 0 28 28" fill="none" xmlns="http://www.w3.org/2000/svg">
<path d="M24.7039 19.191C24.0703 18.0963 23.3145 16.0074 23.3145 12.2766V11.4835C23.3145 6.28936 19.1685 2.03351 14.0667 2H14C12.7749 2 11.5619 2.24285 10.4304 2.71467C9.29883 3.18648 8.27103 3.87798 7.40581 4.74956C6.54059 5.62114 5.85495 6.65569 5.38817 7.79396C4.92138 8.93222 4.68261 10.1518 4.68554 11.383V12.2766C4.68554 16.0074 3.92971 18.0963 3.29615 19.191C3.10193 19.5312 2.99983 19.9167 3 20.309C3.00017 20.7013 3.10262 21.0867 3.29714 21.4268C3.49166 21.767 3.77146 22.0499 4.10866 22.2475C4.44587 22.4452 4.82872 22.5505 5.21906 22.5532H9.13158C9.24743 23.7701 9.8104 24.9 10.7106 25.7222C11.6108 26.5444 12.7836 27 14 27C15.2164 27 16.3892 26.5444 17.2894 25.7222C18.1896 24.9 18.7526 23.7701 18.8684 22.5532H22.7809C23.1713 22.5505 23.5541 22.4452 23.8913 22.2475C24.2285 22.0499 24.5083 21.767 24.7029 21.4268C24.8974 21.0867 24.9998 20.7013 25 20.309C25.0002 19.9167 24.8981 19.5312 24.7039 19.191ZM14 24.3404C13.4881 24.3384 12.9924 24.1598 12.5958 23.8345C12.1992 23.5092 11.9259 23.0568 11.8214 22.5532H16.1786C16.0741 23.0568 15.8008 23.5092 15.4042 23.8345C15.0076 24.1598 14.5119 24.3384 14 24.3404ZM5.95266 19.8723C7.09752 17.4596 7.35316 14.4548 7.35316 12.2766V11.383C7.34876 10.5035 7.51753 9.63181 7.84973 8.81813C8.18193 8.00445 8.67101 7.26485 9.28881 6.64191C9.90661 6.01897 10.6409 5.525 11.4495 5.18844C12.258 4.85187 13.1248 4.67937 14 4.68085H14.0556C17.6902 4.70319 20.6468 7.75266 20.6468 11.4835V12.2766C20.6468 14.4548 20.9025 17.4596 22.0473 19.8723H5.95266Z" fill="#272C31"/>
<circle cx="22" cy="6" r="6" fill="#3085F4"/>
</svg>
