<svg width="20" height="20" viewBox="0 0 20 20" fill="none" xmlns="http://www.w3.org/2000/svg">
<path d="M7.49986 17.1875C7.25132 17.1865 7.01303 17.0883 6.8358 16.9141C6.7484 16.827 6.67905 16.7235 6.63173 16.6096C6.58442 16.4956 6.56006 16.3734 6.56006 16.25C6.56006 16.1266 6.58442 16.0045 6.63173 15.8905C6.67905 15.7766 6.7484 15.6731 6.8358 15.586L12.4217 10L6.8358 4.4141C6.65968 4.23798 6.56073 3.99911 6.56073 3.75004C6.56073 3.62671 6.58503 3.50459 6.63222 3.39065C6.67942 3.27671 6.74859 3.17318 6.8358 3.08598C6.923 2.99877 7.02653 2.9296 7.14047 2.8824C7.25441 2.8352 7.37653 2.81091 7.49986 2.81091C7.74893 2.81091 7.9878 2.90986 8.16392 3.08598L14.4139 9.33598C14.5013 9.42307 14.5707 9.52657 14.618 9.64052C14.6653 9.75448 14.6897 9.87665 14.6897 10C14.6897 10.1234 14.6653 10.2456 14.618 10.3596C14.5707 10.4735 14.5013 10.577 14.4139 10.6641L8.16392 16.9141C7.98669 17.0883 7.7484 17.1865 7.49986 17.1875Z" fill="#3085F4"/>
</svg>
