<svg width="20" height="20" viewBox="0 0 20 20" fill="none" xmlns="http://www.w3.org/2000/svg">
<path d="M3 7.92482C3.00105 7.68024 3.0966 7.44575 3.26627 7.27134C3.35109 7.18534 3.45187 7.1171 3.56284 7.07053C3.67381 7.02397 3.79278 7 3.91294 7C4.0331 7 4.15207 7.02397 4.26304 7.07053C4.37401 7.1171 4.47479 7.18534 4.55961 7.27134L9.99921 12.7682L15.4388 7.27134C15.6103 7.09803 15.8429 7.00067 16.0855 7.00067C16.2056 7.00067 16.3245 7.02457 16.4354 7.07101C16.5464 7.11746 16.6472 7.18553 16.7321 7.27134C16.8171 7.35716 16.8844 7.45904 16.9304 7.57116C16.9763 7.68328 17 7.80346 17 7.92482C17 8.16992 16.9036 8.40498 16.7321 8.5783L10.6459 14.7287C10.5611 14.8147 10.4603 14.8829 10.3493 14.9295C10.2383 14.976 10.1194 15 9.99921 15C9.87905 15 9.76008 14.976 9.64911 14.9295C9.53814 14.8829 9.43736 14.8147 9.35254 14.7287L3.26627 8.5783C3.0966 8.40388 3.00105 8.1694 3 7.92482Z" fill="#186ADE"/>
</svg>
