<svg width="28" height="28" viewBox="0 0 28 28" fill="none" xmlns="http://www.w3.org/2000/svg">
<path d="M8.78281 12.6547C8.61892 12.4893 8.52742 12.2657 8.52844 12.0329C8.52947 11.8 8.62294 11.5772 8.78828 11.4133C8.95363 11.2494 9.17731 11.1579 9.41012 11.1589C9.64293 11.1599 9.86579 11.2534 10.0297 11.4188L13.125 14.5141V4.375C13.125 4.14294 13.2172 3.92038 13.3813 3.75628C13.5454 3.59219 13.7679 3.5 14 3.5C14.2321 3.5 14.4546 3.59219 14.6187 3.75628C14.7828 3.92038 14.875 4.14294 14.875 4.375V14.5141L17.9703 11.4188C18.0515 11.3369 18.1479 11.2718 18.2543 11.2272C18.3606 11.1826 18.4746 11.1594 18.5899 11.1589C18.7052 11.1584 18.8194 11.1806 18.9261 11.2243C19.0328 11.2679 19.1298 11.3321 19.2117 11.4133C19.2936 11.4944 19.3587 11.5909 19.4033 11.6972C19.4478 11.8035 19.471 11.9176 19.4716 12.0329C19.4721 12.1481 19.4499 12.2624 19.4062 12.3691C19.3626 12.4758 19.2983 12.5728 19.2172 12.6547L14.6234 17.2484C14.4562 17.4102 14.2326 17.5006 14 17.5006C13.7674 17.5006 13.5438 17.4102 13.3766 17.2484L8.78281 12.6547ZM23.625 15.75C23.3929 15.75 23.1704 15.8422 23.0063 16.0063C22.8422 16.1704 22.75 16.3929 22.75 16.625V22.75H5.25V16.625C5.25 16.3929 5.15781 16.1704 4.99372 16.0063C4.82962 15.8422 4.60706 15.75 4.375 15.75C4.14294 15.75 3.92038 15.8422 3.75628 16.0063C3.59219 16.1704 3.5 16.3929 3.5 16.625V22.75C3.5 23.2141 3.68437 23.6592 4.01256 23.9874C4.34075 24.3156 4.78587 24.5 5.25 24.5H22.75C23.2141 24.5 23.6592 24.3156 23.9874 23.9874C24.3156 23.6592 24.5 23.2141 24.5 22.75V16.625C24.5 16.3929 24.4078 16.1704 24.2437 16.0063C24.0796 15.8422 23.8571 15.75 23.625 15.75Z" fill="#82829B"/>
</svg>
