<svg width="28" height="28" viewBox="0 0 28 28" fill="none" xmlns="http://www.w3.org/2000/svg">
<path d="M15.75 21C15.75 21.3461 15.6474 21.6845 15.4551 21.9722C15.2628 22.26 14.9895 22.4843 14.6697 22.6168C14.3499 22.7492 13.9981 22.7839 13.6586 22.7164C13.3191 22.6489 13.0073 22.4822 12.7626 22.2374C12.5178 21.9927 12.3512 21.6809 12.2836 21.3414C12.2161 21.0019 12.2508 20.6501 12.3832 20.3303C12.5157 20.0105 12.74 19.7372 13.0278 19.5449C13.3155 19.3526 13.6539 19.25 14 19.25C14.4641 19.25 14.9092 19.4344 15.2374 19.7626C15.5656 20.0908 15.75 20.5359 15.75 21ZM14 8.75C14.3461 8.75 14.6845 8.64737 14.9722 8.45507C15.26 8.26278 15.4843 7.98947 15.6168 7.6697C15.7492 7.34993 15.7839 6.99806 15.7164 6.65859C15.6489 6.31913 15.4822 6.00731 15.2374 5.76256C14.9927 5.51782 14.6809 5.35115 14.3414 5.28363C14.0019 5.2161 13.6501 5.25076 13.3303 5.38321C13.0105 5.51566 12.7372 5.73997 12.5449 6.02775C12.3526 6.31554 12.25 6.65388 12.25 7C12.25 7.46413 12.4344 7.90925 12.7626 8.23744C13.0908 8.56563 13.5359 8.75 14 8.75ZM14 12.25C13.6539 12.25 13.3155 12.3526 13.0278 12.5449C12.74 12.7372 12.5157 13.0105 12.3832 13.3303C12.2508 13.6501 12.2161 14.0019 12.2836 14.3414C12.3512 14.6809 12.5178 14.9927 12.7626 15.2374C13.0073 15.4822 13.3191 15.6489 13.6586 15.7164C13.9981 15.7839 14.3499 15.7492 14.6697 15.6168C14.9895 15.4843 15.2628 15.26 15.4551 14.9722C15.6474 14.6845 15.75 14.3461 15.75 14C15.75 13.5359 15.5656 13.0908 15.2374 12.7626C14.9092 12.4344 14.4641 12.25 14 12.25Z" fill="#82829B"/>
</svg>
