<svg width="28" height="28" viewBox="0 0 28 28" fill="none" xmlns="http://www.w3.org/2000/svg">
<path d="M27.0479 13.65C27.0151 13.5625 26.0854 11.5063 24.0291 9.43906C21.2838 6.70469 17.8166 5.25 13.9995 5.25C10.1823 5.25 6.71508 6.70469 3.96976 9.43906C1.91351 11.5063 0.983826 13.5625 0.951013 13.65C0.90218 13.7602 0.876953 13.8794 0.876953 14C0.876953 14.1206 0.90218 14.2398 0.951013 14.35C0.983826 14.4375 1.91351 16.4937 3.96976 18.5609C6.71508 21.2953 10.1823 22.75 13.9995 22.75C17.8166 22.75 21.2838 21.2953 24.0291 18.5609C26.0854 16.4937 27.0151 14.4375 27.0479 14.35C27.0967 14.2398 27.122 14.1206 27.122 14C27.122 13.8794 27.0967 13.7602 27.0479 13.65ZM13.9995 21C10.6307 21 7.68851 19.775 5.26039 17.3578C4.25691 16.3695 3.40547 15.238 2.73383 14C3.40456 12.7582 4.25604 11.6229 5.26039 10.6312C7.68851 8.225 10.6307 7 13.9995 7C17.3682 7 20.3104 8.225 22.7385 10.6312C23.7429 11.6229 24.5943 12.7582 25.2651 14C24.4776 15.4766 21.0432 21 13.9995 21ZM13.9995 8.75C12.9611 8.75 11.9461 9.05791 11.0827 9.63478C10.2193 10.2117 9.54644 11.0316 9.14908 11.9909C8.75172 12.9502 8.64776 14.0058 8.85033 15.0242C9.0529 16.0426 9.55291 16.9781 10.2871 17.7123C11.0214 18.4465 11.9568 18.9466 12.9752 19.1491C13.9936 19.3517 15.0492 19.2477 16.0085 18.8504C16.9678 18.453 17.7878 17.7801 18.3647 16.9167C18.9415 16.0534 19.2494 15.0384 19.2495 14C19.2494 12.6076 18.6963 11.2723 17.7118 10.2877C16.7272 9.30312 15.3918 8.75 13.9995 8.75ZM13.9995 17.5C13.3072 17.5 12.6305 17.2947 12.055 16.9101C11.4794 16.5256 11.0308 15.9789 10.7659 15.3394C10.501 14.6999 10.4317 13.9961 10.5667 13.3172C10.7017 12.6383 11.0351 12.0146 11.5246 11.5251C12.0141 11.0356 12.6377 10.7023 13.3166 10.5673C13.9956 10.4322 14.6993 10.5015 15.3388 10.7664C15.9784 11.0313 16.525 11.4799 16.9096 12.0555C17.2942 12.6311 17.4995 13.3078 17.4995 14C17.4966 14.9274 17.1269 15.8159 16.4711 16.4717C15.8154 17.1274 14.9268 17.4971 13.9995 17.5Z" fill="#82829B"/>
</svg>
