<svg width="24" height="24" viewBox="0 0 24 24" fill="none" xmlns="http://www.w3.org/2000/svg">
<path d="M15 1.5C13.8162 1.50143 12.6494 1.78273 11.595 2.32097C10.5405 2.8592 9.62831 3.63911 8.9327 4.59705C8.2371 5.55499 7.77784 6.66383 7.59239 7.83307C7.40695 9.00231 7.50058 10.1988 7.86564 11.325L2.46564 16.7156C2.32635 16.8585 2.24889 17.0505 2.25001 17.25V21C2.25001 21.1989 2.32903 21.3897 2.46968 21.5303C2.61033 21.671 2.8011 21.75 3.00001 21.75H6.75001C6.94892 21.75 7.13969 21.671 7.28034 21.5303C7.42099 21.3897 7.50001 21.1989 7.50001 21V19.5H9.00001C9.19892 19.5 9.38969 19.421 9.53034 19.2803C9.67099 19.1397 9.75001 18.9489 9.75001 18.75V17.25H11.25C11.4495 17.2511 11.6415 17.1737 11.7844 17.0344L12.675 16.1344C13.7056 16.4685 14.7964 16.5754 15.8723 16.4477C16.9482 16.32 17.9836 15.9607 18.9074 15.3945C19.8311 14.8283 20.6212 14.0687 21.2233 13.168C21.8254 12.2673 22.2252 11.2468 22.3952 10.1768C22.5652 9.10676 22.5014 8.01261 22.2081 6.96962C21.9148 5.92664 21.399 4.95958 20.6962 4.135C19.9934 3.31043 19.1203 2.6479 18.137 2.19302C17.1537 1.73815 16.0835 1.50172 15 1.5ZM16.875 8.625C16.5783 8.625 16.2883 8.53703 16.0417 8.3722C15.795 8.20738 15.6027 7.97311 15.4892 7.69903C15.3757 7.42494 15.346 7.12334 15.4038 6.83236C15.4617 6.54139 15.6046 6.27412 15.8144 6.06434C16.0241 5.85456 16.2914 5.7117 16.5824 5.65382C16.8733 5.59594 17.1749 5.62565 17.449 5.73918C17.7231 5.85271 17.9574 6.04497 18.1222 6.29165C18.287 6.53832 18.375 6.82833 18.375 7.125C18.375 7.52282 18.217 7.90436 17.9357 8.18566C17.6544 8.46696 17.2728 8.625 16.875 8.625Z" fill="#3085F4"/>
</svg>
