<svg width="24" height="24" viewBox="0 0 24 24" fill="none" xmlns="http://www.w3.org/2000/svg">
<path d="M21.525 5.46563L18.525 2.46563C18.3844 2.32537 18.1939 2.2466 17.9953 2.2466C17.7967 2.2466 17.6062 2.32537 17.4656 2.46563L8.46563 11.4656C8.32633 11.6085 8.24888 11.8005 8.25 12V15C8.25 15.1989 8.32902 15.3897 8.46967 15.5303C8.61032 15.671 8.80109 15.75 9 15.75H12C12.0974 15.7503 12.1939 15.7315 12.284 15.6945C12.3741 15.6575 12.456 15.6031 12.525 15.5344L21.525 6.53438C21.5959 6.46459 21.6521 6.3814 21.6906 6.28966C21.729 6.19792 21.7487 6.09946 21.7487 6C21.7487 5.90054 21.729 5.80208 21.6906 5.71034C21.6521 5.6186 21.5959 5.53541 21.525 5.46563ZM18.75 7.19063L16.8094 5.25L18 4.05938L19.9406 6L18.75 7.19063ZM21 11.25V19.5C21 19.8978 20.842 20.2794 20.5607 20.5607C20.2794 20.842 19.8978 21 19.5 21H4.5C4.10218 21 3.72064 20.842 3.43934 20.5607C3.15804 20.2794 3 19.8978 3 19.5V4.5C3 4.10218 3.15804 3.72064 3.43934 3.43934C3.72064 3.15804 4.10218 3 4.5 3H12.75C12.9489 3 13.1397 3.07902 13.2803 3.21967C13.421 3.36032 13.5 3.55109 13.5 3.75C13.5 3.94891 13.421 4.13968 13.2803 4.28033C13.1397 4.42098 12.9489 4.5 12.75 4.5H4.5V19.5H19.5V11.25C19.5 11.0511 19.579 10.8603 19.7197 10.7197C19.8603 10.579 20.0511 10.5 20.25 10.5C20.4489 10.5 20.6397 10.579 20.7803 10.7197C20.921 10.8603 21 11.0511 21 11.25Z" fill="#60606C"/>
</svg>
