<svg width="25" height="24" viewBox="0 0 25 24" fill="none" xmlns="http://www.w3.org/2000/svg">
<path d="M22.2125 16.4156C22.0467 17.6816 21.4267 18.8443 20.4679 19.6876C19.5092 20.5308 18.2768 20.9972 17 21C9.55625 21 3.5 14.9438 3.5 7.50001C3.50281 6.22319 3.96919 4.99083 4.81243 4.03206C5.65566 3.07329 6.81837 2.45336 8.08437 2.28751C8.40711 2.25172 8.73284 2.31967 9.01435 2.4815C9.29586 2.64332 9.51851 2.89061 9.65 3.18751L11.5344 7.58438C11.6321 7.81261 11.6713 8.06163 11.6484 8.30885C11.6255 8.55607 11.5412 8.79364 11.4031 9.00001L9.84687 11.3813C10.5516 12.8114 11.7127 13.966 13.1469 14.6625L15.5 13.0969C15.7061 12.9579 15.9443 12.8738 16.192 12.8525C16.4397 12.8312 16.6888 12.8733 16.9156 12.975L21.3125 14.85C21.6094 14.9815 21.8567 15.2041 22.0185 15.4857C22.1803 15.7672 22.2483 16.0929 22.2125 16.4156ZM15.2562 4.47188C16.3979 4.78377 17.4384 5.38794 18.2752 6.22477C19.1121 7.06159 19.7162 8.10215 20.0281 9.24376C20.0695 9.40404 20.1627 9.54612 20.2933 9.64787C20.4239 9.74962 20.5845 9.80531 20.75 9.80626C20.8166 9.80613 20.8829 9.79667 20.9469 9.77813C21.0422 9.75319 21.1316 9.70946 21.2098 9.64953C21.2881 9.58959 21.3535 9.51465 21.4024 9.42908C21.4513 9.34352 21.4827 9.24905 21.4946 9.15123C21.5065 9.05341 21.4988 8.95419 21.4719 8.85938C21.0969 7.46128 20.3607 6.18644 19.3371 5.16289C18.3136 4.13934 17.0387 3.40311 15.6406 3.02813C15.5428 2.99249 15.4386 2.97761 15.3347 2.98444C15.2308 2.99127 15.1295 3.01965 15.0372 3.06779C14.9448 3.11593 14.8635 3.18277 14.7985 3.26404C14.7334 3.34532 14.6859 3.43925 14.6591 3.53987C14.6324 3.64049 14.6268 3.74558 14.6429 3.84846C14.6589 3.95133 14.6962 4.04974 14.7524 4.13741C14.8086 4.22508 14.8824 4.3001 14.9691 4.35769C15.0559 4.41527 15.1536 4.45416 15.2562 4.47188ZM14.4781 7.36876C15.1127 7.54246 15.6911 7.87848 16.1563 8.3437C16.6215 8.80892 16.9575 9.3873 17.1312 10.0219C17.1712 10.183 17.264 10.326 17.3949 10.428C17.5258 10.53 17.6872 10.5851 17.8531 10.5844C17.9167 10.585 17.98 10.5755 18.0406 10.5563C18.1368 10.5323 18.2272 10.4894 18.3065 10.4299C18.3857 10.3704 18.4523 10.2956 18.5021 10.2099C18.5519 10.1242 18.5841 10.0294 18.5966 9.93109C18.6091 9.83277 18.6018 9.73294 18.575 9.63751C18.3382 8.74642 17.8702 7.93374 17.2182 7.28179C16.5663 6.62983 15.7536 6.16177 14.8625 5.92501C14.7647 5.88937 14.6605 5.87449 14.5566 5.88131C14.4527 5.88814 14.3514 5.91653 14.259 5.96467C14.1667 6.01281 14.0854 6.07964 14.0203 6.16092C13.9553 6.24219 13.9078 6.33613 13.881 6.43675C13.8542 6.53736 13.8487 6.64246 13.8647 6.74533C13.8808 6.84821 13.9181 6.94662 13.9743 7.03429C14.0304 7.12196 14.1042 7.19698 14.191 7.25456C14.2777 7.31214 14.3755 7.35104 14.4781 7.36876Z" fill="#82829B"/>
</svg>
