<svg width="14" height="14" viewBox="0 0 14 14" fill="none" xmlns="http://www.w3.org/2000/svg">
<path d="M12.7964 6.31641L10.3246 8.37266L11.1066 11.55C11.1425 11.6832 11.1475 11.8228 11.121 11.9582C11.0946 12.0936 11.0374 12.2211 10.954 12.331C10.8705 12.4409 10.763 12.5301 10.6397 12.5919C10.5163 12.6537 10.3805 12.6864 10.2425 12.6875C10.0736 12.6867 9.90842 12.6374 9.76675 12.5453L7.00503 10.8008H6.99409L4.42925 12.425C4.26356 12.5295 4.07045 12.5823 3.87463 12.5764C3.67881 12.5706 3.48919 12.5064 3.33003 12.3922C3.16606 12.2725 3.04187 12.1063 2.9736 11.9152C2.90533 11.724 2.89614 11.5168 2.94722 11.3203L3.6855 8.41641L1.20269 6.31641C1.06183 6.1987 0.959452 6.0415 0.908766 5.86508C0.85808 5.68865 0.861404 5.50108 0.918312 5.32656C0.973728 5.15468 1.07945 5.00338 1.22179 4.89223C1.36414 4.78108 1.53656 4.71521 1.71675 4.70312L4.94331 4.49531L6.16831 1.44375C6.23401 1.27663 6.34836 1.13307 6.49656 1.03167C6.64476 0.93027 6.81999 0.875691 6.99956 0.875C7.17913 0.875691 7.35436 0.93027 7.50256 1.03167C7.65077 1.13307 7.76512 1.27663 7.83081 1.44375L9.03394 4.47891L12.2824 4.70312C12.4628 4.71447 12.6356 4.78007 12.778 4.89132C12.9205 5.00258 13.0261 5.15429 13.0808 5.32656C13.1377 5.50108 13.141 5.68865 13.0904 5.86508C13.0397 6.0415 12.9373 6.1987 12.7964 6.31641Z" fill="#19B46E"/>
</svg>
