<svg width="14" height="14" viewBox="0 0 14 14" fill="none" xmlns="http://www.w3.org/2000/svg">
<path d="M3.50002 7.65628C3.50075 7.71393 3.48994 7.77115 3.46821 7.82457C3.44648 7.87798 3.41429 7.9265 3.37351 7.96727C3.33274 8.00805 3.28422 8.04024 3.23081 8.06197C3.17739 8.0837 3.12017 8.09451 3.06252 8.09378H0.656267C0.57499 8.09312 0.495421 8.07038 0.426066 8.028C0.356712 7.98561 0.300181 7.92518 0.262517 7.85315C0.227494 7.77981 0.213064 7.69832 0.22077 7.6174C0.228476 7.53649 0.258029 7.45919 0.306267 7.39378C0.693448 6.87404 1.21009 6.46487 1.8047 6.20706C1.5492 5.97317 1.35289 5.68196 1.23194 5.35737C1.11098 5.03279 1.06883 4.68412 1.10896 4.34007C1.14909 3.99602 1.27035 3.66641 1.46277 3.37838C1.65518 3.09035 1.91325 2.85213 2.21572 2.68333C2.51819 2.51453 2.85643 2.41997 3.20259 2.40744C3.54875 2.39491 3.89294 2.46476 4.20683 2.61125C4.52071 2.75773 4.79533 2.97667 5.00807 3.25003C5.2208 3.52339 5.36558 3.84337 5.43049 4.18362C5.44667 4.27224 5.43544 4.36368 5.39831 4.44576C5.36118 4.52783 5.29991 4.59664 5.22267 4.643C4.51536 5.06242 3.97741 5.71648 3.70236 6.49143C3.56677 6.86475 3.49827 7.2591 3.50002 7.65628ZM13.6938 7.39378C13.3066 6.87404 12.7899 6.46487 12.1953 6.20706C12.4508 5.97317 12.6471 5.68196 12.7681 5.35737C12.8891 5.03279 12.9312 4.68412 12.8911 4.34007C12.8509 3.99602 12.7297 3.66641 12.5373 3.37838C12.3449 3.09035 12.0868 2.85213 11.7843 2.68333C11.4818 2.51453 11.1436 2.41997 10.7974 2.40744C10.4513 2.39491 10.1071 2.46476 9.79321 2.61125C9.47932 2.75773 9.20471 2.97667 8.99197 3.25003C8.77923 3.52339 8.63445 3.84337 8.56955 4.18362C8.55337 4.27224 8.56459 4.36368 8.60172 4.44576C8.63885 4.52783 8.70012 4.59664 8.77736 4.643C9.4856 5.06135 10.0239 5.71578 10.2977 6.49143C10.4333 6.86475 10.5018 7.2591 10.5 7.65628C10.4993 7.71393 10.5101 7.77115 10.5318 7.82457C10.5536 7.87798 10.5857 7.9265 10.6265 7.96727C10.6673 8.00805 10.7158 8.04024 10.7692 8.06197C10.8226 8.0837 10.8799 8.09451 10.9375 8.09378H13.3438C13.425 8.09378 13.5047 8.07115 13.5738 8.02844C13.6429 7.98572 13.6987 7.9246 13.7351 7.85193C13.7714 7.77926 13.7868 7.69791 13.7795 7.61699C13.7722 7.53607 13.7425 7.45878 13.6938 7.39378ZM8.59689 9.73987C9.0323 9.40614 9.35222 8.94438 9.51168 8.41947C9.67114 7.89456 9.66214 7.33288 9.48594 6.81335C9.30974 6.29382 8.97519 5.84255 8.52931 5.52294C8.08343 5.20333 7.54861 5.03146 7.00002 5.03146C6.45142 5.03146 5.91661 5.20333 5.47073 5.52294C5.02484 5.84255 4.6903 6.29382 4.5141 6.81335C4.3379 7.33288 4.3289 7.89456 4.48836 8.41947C4.64782 8.94438 4.96773 9.40614 5.40314 9.73987C4.55249 10.1175 3.86286 10.7839 3.45627 11.6211C3.42392 11.6877 3.40943 11.7615 3.41422 11.8353C3.41902 11.9091 3.44293 11.9804 3.48361 12.0422C3.52148 12.1056 3.57515 12.1581 3.63937 12.1945C3.7036 12.2309 3.77618 12.2501 3.85002 12.25H10.15C10.2239 12.2501 10.2964 12.2309 10.3607 12.1945C10.4249 12.1581 10.4786 12.1056 10.5164 12.0422C10.5571 11.9804 10.581 11.9091 10.5858 11.8353C10.5906 11.7615 10.5761 11.6877 10.5438 11.6211C10.1372 10.7839 9.44754 10.1175 8.59689 9.73987Z" fill="#19B46E"/>
</svg>
