<svg width="18" height="18" viewBox="0 0 18 18" fill="none" xmlns="http://www.w3.org/2000/svg">
<path d="M12.375 6.46875V13.2188C12.375 13.5171 12.2565 13.8033 12.0455 14.0142C11.8345 14.2252 11.5484 14.3438 11.25 14.3438H3.375C3.00566 14.3438 2.63993 14.271 2.2987 14.1297C1.95747 13.9883 1.64743 13.7812 1.38626 13.52C0.858816 12.9925 0.5625 12.2772 0.5625 11.5312V4.78125C0.5625 4.48288 0.681026 4.19673 0.892005 3.98575C1.10298 3.77478 1.38913 3.65625 1.6875 3.65625H9.5625C10.3084 3.65625 11.0238 3.95257 11.5512 4.48001C12.0787 5.00746 12.375 5.72283 12.375 6.46875ZM17.1562 5.13984C17.0715 5.08831 16.9742 5.06106 16.875 5.06106C16.7758 5.06106 16.6785 5.08831 16.5938 5.13984L13.7812 6.74297C13.695 6.79276 13.6235 6.86457 13.5741 6.95104C13.5247 7.03752 13.4991 7.13556 13.5 7.23516V10.7648C13.4991 10.8644 13.5247 10.9625 13.5741 11.049C13.6235 11.1354 13.695 11.2072 13.7812 11.257L16.5938 12.8602C16.6794 12.9093 16.7762 12.9359 16.875 12.9375C16.9739 12.9369 17.0709 12.9102 17.1562 12.8602C17.2424 12.8121 17.3141 12.7416 17.3636 12.6562C17.4131 12.5709 17.4386 12.4737 17.4375 12.375V5.625C17.4386 5.52631 17.4131 5.42914 17.3636 5.34376C17.3141 5.25837 17.2424 5.18792 17.1562 5.13984Z" fill="#2E2E37"/>
</svg>
