<svg width="29" height="28" viewBox="0 0 29 28" fill="none" xmlns="http://www.w3.org/2000/svg">
<path d="M19.75 10.0625V20.5625C19.75 21.0266 19.5656 21.4717 19.2374 21.7999C18.9092 22.1281 18.4641 22.3125 18 22.3125H5.75C5.17547 22.3125 4.60656 22.1993 4.07576 21.9795C3.54496 21.7596 3.06266 21.4373 2.65641 21.0311C1.83594 20.2106 1.375 19.0978 1.375 17.9375V7.4375C1.375 6.97337 1.55937 6.52825 1.88756 6.20006C2.21575 5.87187 2.66087 5.6875 3.125 5.6875H15.375C16.5353 5.6875 17.6481 6.14844 18.4686 6.96891C19.2891 7.78938 19.75 8.90218 19.75 10.0625ZM27.1875 7.99531C27.0556 7.91515 26.9043 7.87276 26.75 7.87276C26.5957 7.87276 26.4444 7.91515 26.3125 7.99531L21.9375 10.4891C21.8033 10.5665 21.6921 10.6782 21.6153 10.8127C21.5384 10.9472 21.4986 11.0998 21.5 11.2547V16.7453C21.4986 16.9002 21.5384 17.0527 21.6153 17.1873C21.6921 17.3218 21.8033 17.4335 21.9375 17.5109L26.3125 20.0047C26.4458 20.0812 26.5963 20.1226 26.75 20.125C26.9039 20.1241 27.0548 20.0826 27.1875 20.0047C27.3216 19.9299 27.433 19.8203 27.51 19.6875C27.587 19.5547 27.6267 19.4035 27.625 19.25V8.75C27.6267 8.59648 27.587 8.44534 27.51 8.31251C27.433 8.17968 27.3216 8.0701 27.1875 7.99531Z" fill="#067A91"/>
</svg>
