<svg width="18" height="18" viewBox="0 0 18 18" fill="none" xmlns="http://www.w3.org/2000/svg">
<path fill-rule="evenodd" clip-rule="evenodd" d="M15.4657 15.6984C15.4657 15.911 15.3806 16.1149 15.229 16.2652C15.0774 16.4155 14.8719 16.5 14.6575 16.5H3.3425C3.12815 16.5 2.92257 16.4155 2.771 16.2652C2.61943 16.1149 2.53428 15.911 2.53428 15.6984V8.48406H1.15492C0.785552 8.48406 0.609778 8.03312 0.883091 7.7867L8.45607 0.958701C8.60487 0.824416 8.79882 0.75 9 0.75C9.20118 0.75 9.39513 0.824416 9.54393 0.958701L17.1169 7.7867C17.3902 8.03312 17.2144 8.48406 16.8451 8.48406H15.4657V15.6984ZM7.875 9.375V7.5H10.125V9.375H12V11.625H10.125V13.5H7.875V11.625H6V9.375H7.875Z" fill="#2E2E37"/>
</svg>
