<svg width="18" height="18" viewBox="0 0 18 18" fill="none" xmlns="http://www.w3.org/2000/svg">
<path d="M17.6872 6.60934C17.609 6.36323 17.4582 6.1465 17.2547 5.98757C17.0511 5.82864 16.8043 5.73492 16.5466 5.71871L11.9372 5.42184C11.9304 5.42102 11.9239 5.41842 11.9185 5.41431C11.913 5.41019 11.9087 5.40471 11.906 5.3984L10.1872 1.06246C10.0944 0.822898 9.93139 0.616996 9.71945 0.471799C9.50752 0.326602 9.25662 0.248901 8.99972 0.248901C8.74282 0.248901 8.49193 0.326602 8.27999 0.471799C8.06806 0.616996 7.905 0.822898 7.81222 1.06246L6.09347 5.3984C6.09078 5.40471 6.08647 5.41019 6.08099 5.41431C6.0755 5.41842 6.06903 5.42102 6.06222 5.42184L1.45285 5.71871C1.19512 5.73492 0.948298 5.82864 0.744755 5.98757C0.541212 6.1465 0.390446 6.36323 0.312223 6.60934C0.230927 6.85865 0.226177 7.1266 0.298586 7.37864C0.370995 7.63068 0.517243 7.85525 0.718473 8.0234L4.24972 10.9609C4.25776 10.9689 4.26346 10.979 4.26621 10.99C4.26896 11.001 4.26866 11.0125 4.26535 11.0234L3.21066 15.1718C3.13878 15.4525 3.15243 15.7483 3.24988 16.0211C3.34733 16.294 3.52411 16.5315 3.75754 16.7031C3.9849 16.8663 4.25579 16.9579 4.53554 16.9663C4.81528 16.9746 5.09115 16.8993 5.32785 16.75L8.99191 14.4297H9.00754L12.9528 16.9218C13.1552 17.0534 13.3912 17.1239 13.6325 17.125C13.8988 17.1214 14.1576 17.0369 14.3747 16.8828C14.5868 16.729 14.7474 16.5145 14.8353 16.2677C14.9231 16.0209 14.9342 15.7532 14.8669 15.5L13.7341 11.0234C13.7308 11.0125 13.7305 11.001 13.7332 10.99C13.736 10.979 13.7417 10.9689 13.7497 10.9609L17.281 8.0234C17.4822 7.85525 17.6285 7.63068 17.7009 7.37864C17.7733 7.1266 17.7685 6.85865 17.6872 6.60934ZM16.4841 7.06246L12.945 9.99996C12.7571 10.1594 12.6179 10.3685 12.5433 10.6034C12.4687 10.8383 12.4617 11.0894 12.5232 11.3281L13.656 15.8047C13.6638 15.8359 13.6638 15.8437 13.656 15.8515C13.6508 15.8616 13.6426 15.8698 13.6325 15.875H13.6169L9.67941 13.375C9.47637 13.2458 9.24036 13.178 8.99972 13.1797V1.49996C9.00753 1.49996 9.01535 1.49996 9.02316 1.5234L10.7497 5.85934C10.8377 6.08506 10.9879 6.28121 11.1829 6.42502C11.3779 6.56883 11.6096 6.65441 11.8513 6.67184L16.4685 6.96871C16.4763 6.96871 16.4841 6.96871 16.4919 6.99996C16.4997 7.03121 16.4919 7.05465 16.4841 7.06246Z" fill="#F5C518"/>
</svg>
