<svg width="231" height="62" viewBox="0 0 231 62" fill="none" xmlns="http://www.w3.org/2000/svg">
<path d="M42.3884 8.84739C45.6586 4.44716 51.8226 3.56614 56.2007 6.87323C60.6066 10.2014 61.5422 16.5134 58.2905 20.9716L34.6012 53.4505C31.3537 57.9029 25.1927 58.8983 20.7068 55.6954C16.0179 52.3476 14.9773 45.7306 18.4128 41.1081L42.3884 8.84739Z" fill="#ADCCF7"/>
<path d="M5.63898 36.6626C2.52461 32.1244 3.63044 25.8517 8.10894 22.6521C12.5874 19.4525 18.7427 20.5376 21.857 25.0758L33.2909 41.737C36.4053 46.2752 35.2995 52.5479 30.821 55.7475C26.3425 58.9471 20.1872 57.862 17.0729 53.3238L5.63898 36.6626Z" fill="#3085F4"/>
<path d="M29.6406 25.9612C32.94 21.5236 39.2461 20.5022 43.7763 23.6716C48.338 26.863 49.5547 32.9203 46.2785 37.4214L34.5427 53.5857C31.7891 57.5033 25.0213 59.3429 19.9672 55.9697C15.4163 52.6929 14.4429 46.4016 17.7903 41.8994L29.6406 25.9612Z" fill="#75B1FF"/>
<path d="M85.904 31.288C85.0933 31.288 84.432 31.1173 83.92 30.776C83.4293 30.4347 83.0133 29.8907 82.672 29.144L74.928 12.056C74.5867 11.3093 74.48 10.6373 74.608 10.04C74.736 9.44267 75.0347 8.984 75.504 8.664C75.9733 8.32267 76.56 8.152 77.264 8.152C78.1173 8.152 78.768 8.344 79.216 8.728C79.664 9.112 80.048 9.67733 80.368 10.424L86 23.48L91.632 10.392C91.952 9.64533 92.336 9.09067 92.784 8.728C93.232 8.344 93.8613 8.152 94.672 8.152C95.3333 8.152 95.888 8.32267 96.336 8.664C96.784 9.00533 97.0613 9.47467 97.168 10.072C97.296 10.648 97.1893 11.3093 96.848 12.056L89.072 29.144C88.752 29.8907 88.336 30.4347 87.824 30.776C87.3333 31.1173 86.6933 31.288 85.904 31.288ZM105.43 31C103.382 31 102.358 29.9867 102.358 27.96V11.48C102.358 9.45333 103.382 8.44 105.43 8.44H116.278C117.814 8.44 118.582 9.18667 118.582 10.68C118.582 12.216 117.814 12.984 116.278 12.984H107.99V17.272H115.574C117.11 17.272 117.878 18.0293 117.878 19.544C117.878 21.0587 117.11 21.816 115.574 21.816H107.99V26.456H116.278C117.814 26.456 118.582 27.2133 118.582 28.728C118.582 30.2427 117.814 31 116.278 31H105.43ZM126.654 31C125.652 31 124.894 30.7227 124.382 30.168C123.892 29.6133 123.678 28.9093 123.742 28.056C123.806 27.2027 124.19 26.3387 124.894 25.464L134.59 13.272H126.206C124.521 13.272 123.678 12.4613 123.678 10.84C123.678 9.24 124.521 8.44 126.206 8.44H138.686C139.689 8.44 140.446 8.71733 140.958 9.272C141.47 9.82667 141.684 10.5307 141.598 11.384C141.534 12.2373 141.15 13.1013 140.446 13.976L130.718 26.168H139.646C141.332 26.168 142.174 26.968 142.174 28.568C142.174 30.1893 141.332 31 139.646 31H126.654ZM150.078 31.288C149.14 31.288 148.414 31.032 147.902 30.52C147.39 30.008 147.134 29.2613 147.134 28.28V11.16C147.134 10.1787 147.39 9.432 147.902 8.92C148.414 8.408 149.14 8.152 150.078 8.152C151.017 8.152 151.742 8.408 152.254 8.92C152.766 9.432 153.022 10.1787 153.022 11.16V28.28C153.022 29.2613 152.766 30.008 152.254 30.52C151.764 31.032 151.038 31.288 150.078 31.288ZM167.919 31.288C166.98 31.288 166.255 31.032 165.743 30.52C165.231 30.008 164.975 29.272 164.975 28.312V13.24H159.951C158.33 13.24 157.519 12.44 157.519 10.84C157.519 9.24 158.33 8.44 159.951 8.44H175.887C177.508 8.44 178.319 9.24 178.319 10.84C178.319 12.44 177.508 13.24 175.887 13.24H170.863V28.312C170.863 29.272 170.607 30.008 170.095 30.52C169.604 31.032 168.879 31.288 167.919 31.288ZM181.342 31.288C180.339 31.288 179.603 30.9467 179.134 30.264C178.664 29.5813 178.664 28.728 179.134 27.704L187.102 10.552C187.486 9.72 187.955 9.112 188.51 8.728C189.064 8.344 189.715 8.152 190.462 8.152C191.187 8.152 191.827 8.344 192.382 8.728C192.936 9.112 193.406 9.72 193.79 10.552L201.758 27.704C202.248 28.7493 202.27 29.6133 201.822 30.296C201.374 30.9573 200.67 31.288 199.71 31.288C198.856 31.288 198.195 31.096 197.726 30.712C197.278 30.328 196.872 29.7093 196.51 28.856L195.486 26.424H185.406L184.382 28.856C183.998 29.7093 183.603 30.328 183.198 30.712C182.792 31.096 182.174 31.288 181.342 31.288ZM190.398 14.584L187.326 21.912H193.534L190.462 14.584H190.398Z" fill="#3085F4"/>
<path d="M79.824 56.14C78.732 56.14 77.808 55.9347 77.052 55.524C76.3053 55.1133 75.736 54.53 75.344 53.774C74.952 53.018 74.756 52.122 74.756 51.086C74.756 50.0407 74.9567 49.14 75.358 48.384C75.7593 47.6187 76.338 47.0307 77.094 46.62C77.85 46.2 78.7553 45.99 79.81 45.99C80.3327 45.99 80.8553 46.0553 81.378 46.186C81.91 46.3073 82.4093 46.5173 82.876 46.816C83.0813 46.9373 83.198 47.1007 83.226 47.306C83.2633 47.502 83.2353 47.6887 83.142 47.866C83.0487 48.0433 82.9087 48.1693 82.722 48.244C82.5353 48.3093 82.33 48.2767 82.106 48.146C81.7513 47.9407 81.392 47.7913 81.028 47.698C80.664 47.6047 80.258 47.558 79.81 47.558C78.7647 47.558 77.9713 47.8613 77.43 48.468C76.898 49.0747 76.632 49.9473 76.632 51.086C76.632 52.234 76.9073 53.1067 77.458 53.704C78.0087 54.3013 78.8253 54.6 79.908 54.6C80.216 54.6 80.5287 54.5767 80.846 54.53C81.1727 54.474 81.4947 54.3947 81.812 54.292V51.996H80.272C79.7867 51.996 79.544 51.772 79.544 51.324C79.544 50.8853 79.7867 50.666 80.272 50.666H82.582C83.0673 50.666 83.31 50.9087 83.31 51.394V54.796C83.31 55.2253 83.142 55.5007 82.806 55.622C82.3953 55.7713 81.924 55.8973 81.392 56C80.86 56.0933 80.3373 56.14 79.824 56.14ZM86.1146 56.112C85.5173 56.112 85.2186 55.8133 85.2186 55.216V49.924C85.2186 49.336 85.5033 49.042 86.0726 49.042C86.6419 49.042 86.9266 49.336 86.9266 49.924V50.358C87.2626 49.5553 87.9813 49.1073 89.0826 49.014C89.4839 48.9673 89.7079 49.196 89.7546 49.7C89.8013 50.1947 89.5586 50.47 89.0266 50.526L88.7186 50.554C87.5706 50.666 86.9966 51.254 86.9966 52.318V55.216C86.9966 55.8133 86.7026 56.112 86.1146 56.112ZM93.7136 56.14C93.0043 56.14 92.3883 55.9953 91.8656 55.706C91.343 55.4167 90.937 55.006 90.6476 54.474C90.3583 53.9327 90.2136 53.298 90.2136 52.57C90.2136 51.842 90.3583 51.212 90.6476 50.68C90.937 50.148 91.343 49.7373 91.8656 49.448C92.3883 49.1587 93.0043 49.014 93.7136 49.014C94.423 49.014 95.039 49.1587 95.5616 49.448C96.0843 49.7373 96.4903 50.148 96.7796 50.68C97.069 51.212 97.2136 51.842 97.2136 52.57C97.2136 53.298 97.069 53.9327 96.7796 54.474C96.4903 55.006 96.0843 55.4167 95.5616 55.706C95.039 55.9953 94.423 56.14 93.7136 56.14ZM93.7136 54.81C94.2363 54.81 94.6563 54.6233 94.9736 54.25C95.291 53.8673 95.4496 53.3073 95.4496 52.57C95.4496 51.8233 95.291 51.268 94.9736 50.904C94.6563 50.5307 94.2363 50.344 93.7136 50.344C93.191 50.344 92.771 50.5307 92.4536 50.904C92.1363 51.268 91.9776 51.8233 91.9776 52.57C91.9776 53.3073 92.1363 53.8673 92.4536 54.25C92.771 54.6233 93.191 54.81 93.7136 54.81ZM101.167 56.112C100.682 56.112 100.346 55.8693 100.159 55.384L98.1293 50.204C98.008 49.8773 98.0127 49.602 98.1433 49.378C98.2833 49.154 98.526 49.042 98.8713 49.042C99.0767 49.042 99.2447 49.0933 99.3753 49.196C99.506 49.2893 99.618 49.4713 99.7113 49.742L101.251 53.956L102.833 49.63C102.983 49.238 103.249 49.042 103.631 49.042C104.023 49.042 104.289 49.238 104.429 49.63L106.011 53.998L107.565 49.7C107.659 49.448 107.775 49.2753 107.915 49.182C108.065 49.0887 108.228 49.042 108.405 49.042C108.741 49.042 108.961 49.1633 109.063 49.406C109.166 49.6393 109.157 49.9053 109.035 50.204L107.019 55.384C106.823 55.8693 106.487 56.112 106.011 56.112C105.517 56.112 105.181 55.8693 105.003 55.384L103.575 51.59L102.175 55.37C101.998 55.8647 101.662 56.112 101.167 56.112ZM115.994 58.632C115.676 58.632 115.457 58.5153 115.336 58.282C115.214 58.0487 115.219 57.7827 115.35 57.484L116.148 55.72L113.754 50.204C113.623 49.896 113.623 49.6253 113.754 49.392C113.884 49.1587 114.141 49.042 114.524 49.042C114.738 49.042 114.911 49.0933 115.042 49.196C115.172 49.2893 115.289 49.4713 115.392 49.742L117.072 53.942L118.794 49.728C118.896 49.4667 119.018 49.2893 119.158 49.196C119.298 49.0933 119.484 49.042 119.718 49.042C120.016 49.042 120.226 49.1587 120.348 49.392C120.469 49.6253 120.464 49.8913 120.334 50.19L116.932 57.96C116.81 58.2213 116.68 58.3987 116.54 58.492C116.4 58.5853 116.218 58.632 115.994 58.632ZM124.612 56.14C123.903 56.14 123.287 55.9953 122.764 55.706C122.241 55.4167 121.835 55.006 121.546 54.474C121.257 53.9327 121.112 53.298 121.112 52.57C121.112 51.842 121.257 51.212 121.546 50.68C121.835 50.148 122.241 49.7373 122.764 49.448C123.287 49.1587 123.903 49.014 124.612 49.014C125.321 49.014 125.937 49.1587 126.46 49.448C126.983 49.7373 127.389 50.148 127.678 50.68C127.967 51.212 128.112 51.842 128.112 52.57C128.112 53.298 127.967 53.9327 127.678 54.474C127.389 55.006 126.983 55.4167 126.46 55.706C125.937 55.9953 125.321 56.14 124.612 56.14ZM124.612 54.81C125.135 54.81 125.555 54.6233 125.872 54.25C126.189 53.8673 126.348 53.3073 126.348 52.57C126.348 51.8233 126.189 51.268 125.872 50.904C125.555 50.5307 125.135 50.344 124.612 50.344C124.089 50.344 123.669 50.5307 123.352 50.904C123.035 51.268 122.876 51.8233 122.876 52.57C122.876 53.3073 123.035 53.8673 123.352 54.25C123.669 54.6233 124.089 54.81 124.612 54.81ZM132.034 56.14C130.354 56.14 129.514 55.1973 129.514 53.312V49.924C129.514 49.336 129.804 49.042 130.382 49.042C130.97 49.042 131.264 49.336 131.264 49.924V53.34C131.264 53.8253 131.362 54.1847 131.558 54.418C131.754 54.6513 132.067 54.768 132.496 54.768C132.963 54.768 133.346 54.6093 133.644 54.292C133.943 53.9653 134.092 53.536 134.092 53.004V49.924C134.092 49.336 134.382 49.042 134.96 49.042C135.548 49.042 135.842 49.336 135.842 49.924V55.216C135.842 55.8133 135.558 56.112 134.988 56.112C134.419 56.112 134.134 55.8133 134.134 55.216V54.978C133.677 55.7527 132.977 56.14 132.034 56.14ZM138.56 56.112C137.963 56.112 137.664 55.8133 137.664 55.216V49.924C137.664 49.336 137.949 49.042 138.518 49.042C139.087 49.042 139.372 49.336 139.372 49.924V50.358C139.708 49.5553 140.427 49.1073 141.528 49.014C141.929 48.9673 142.153 49.196 142.2 49.7C142.247 50.1947 142.004 50.47 141.472 50.526L141.164 50.554C140.016 50.666 139.442 51.254 139.442 52.318V55.216C139.442 55.8133 139.148 56.112 138.56 56.112ZM150.895 56.14C150.391 56.14 149.943 56.0327 149.551 55.818C149.159 55.594 148.865 55.2953 148.669 54.922V55.216C148.669 55.8133 148.384 56.112 147.815 56.112C147.236 56.112 146.947 55.8133 146.947 55.216V46.9C146.947 46.312 147.236 46.018 147.815 46.018C148.403 46.018 148.697 46.312 148.697 46.9V50.162C148.902 49.8167 149.196 49.5413 149.579 49.336C149.971 49.1213 150.41 49.014 150.895 49.014C151.502 49.014 152.029 49.1587 152.477 49.448C152.925 49.7373 153.275 50.148 153.527 50.68C153.779 51.2027 153.905 51.8327 153.905 52.57C153.905 53.298 153.779 53.9327 153.527 54.474C153.275 55.006 152.92 55.4167 152.463 55.706C152.015 55.9953 151.492 56.14 150.895 56.14ZM150.405 54.81C150.928 54.81 151.348 54.6233 151.665 54.25C151.982 53.8673 152.141 53.3073 152.141 52.57C152.141 51.8233 151.982 51.268 151.665 50.904C151.348 50.5307 150.928 50.344 150.405 50.344C149.882 50.344 149.462 50.5307 149.145 50.904C148.828 51.268 148.669 51.8233 148.669 52.57C148.669 53.3073 148.828 53.8673 149.145 54.25C149.462 54.6233 149.882 54.81 150.405 54.81ZM157.82 56.14C156.14 56.14 155.3 55.1973 155.3 53.312V49.924C155.3 49.336 155.589 49.042 156.168 49.042C156.756 49.042 157.05 49.336 157.05 49.924V53.34C157.05 53.8253 157.148 54.1847 157.344 54.418C157.54 54.6513 157.852 54.768 158.282 54.768C158.748 54.768 159.131 54.6093 159.43 54.292C159.728 53.9653 159.878 53.536 159.878 53.004V49.924C159.878 49.336 160.167 49.042 160.746 49.042C161.334 49.042 161.628 49.336 161.628 49.924V55.216C161.628 55.8133 161.343 56.112 160.774 56.112C160.204 56.112 159.92 55.8133 159.92 55.216V54.978C159.462 55.7527 158.762 56.14 157.82 56.14ZM165.955 56.14C165.554 56.14 165.129 56.098 164.681 56.014C164.233 55.93 163.832 55.7853 163.477 55.58C163.281 55.468 163.16 55.3327 163.113 55.174C163.066 55.006 163.071 54.852 163.127 54.712C163.192 54.5627 163.295 54.4553 163.435 54.39C163.584 54.3247 163.757 54.3387 163.953 54.432C164.326 54.6093 164.676 54.7353 165.003 54.81C165.33 54.8753 165.652 54.908 165.969 54.908C166.417 54.908 166.748 54.8333 166.963 54.684C167.187 54.5253 167.299 54.32 167.299 54.068C167.299 53.676 167.01 53.424 166.431 53.312L165.031 53.046C163.846 52.822 163.253 52.206 163.253 51.198C163.253 50.75 163.374 50.3627 163.617 50.036C163.869 49.7093 164.214 49.4573 164.653 49.28C165.092 49.1027 165.596 49.014 166.165 49.014C166.986 49.014 167.719 49.196 168.363 49.56C168.54 49.6533 168.643 49.784 168.671 49.952C168.708 50.1107 168.69 50.2647 168.615 50.414C168.55 50.554 168.442 50.6567 168.293 50.722C168.144 50.778 167.971 50.7593 167.775 50.666C167.486 50.5167 167.206 50.4093 166.935 50.344C166.674 50.2787 166.422 50.246 166.179 50.246C165.722 50.246 165.381 50.3253 165.157 50.484C164.942 50.6427 164.835 50.8527 164.835 51.114C164.835 51.5247 165.101 51.7767 165.633 51.87L167.033 52.136C167.64 52.248 168.097 52.4533 168.405 52.752C168.722 53.0507 168.881 53.452 168.881 53.956C168.881 54.6373 168.615 55.174 168.083 55.566C167.551 55.9487 166.842 56.14 165.955 56.14ZM171.153 47.754C170.826 47.754 170.57 47.6747 170.383 47.516C170.206 47.348 170.117 47.1193 170.117 46.83C170.117 46.5313 170.206 46.3027 170.383 46.144C170.57 45.9853 170.826 45.906 171.153 45.906C171.844 45.906 172.189 46.214 172.189 46.83C172.189 47.446 171.844 47.754 171.153 47.754ZM171.153 56.098C170.873 56.098 170.658 56.014 170.509 55.846C170.36 55.678 170.285 55.4447 170.285 55.146V50.008C170.285 49.3733 170.574 49.056 171.153 49.056C171.741 49.056 172.035 49.3733 172.035 50.008V55.146C172.035 55.4447 171.96 55.678 171.811 55.846C171.662 56.014 171.442 56.098 171.153 56.098ZM174.721 56.112C174.143 56.112 173.853 55.8133 173.853 55.216V49.924C173.853 49.336 174.138 49.042 174.707 49.042C175.277 49.042 175.561 49.336 175.561 49.924V50.218C175.795 49.826 176.107 49.5273 176.499 49.322C176.901 49.1167 177.349 49.014 177.843 49.014C179.458 49.014 180.265 49.952 180.265 51.828V55.216C180.265 55.8133 179.976 56.112 179.397 56.112C178.809 56.112 178.515 55.8133 178.515 55.216V51.912C178.515 51.38 178.413 50.9927 178.207 50.75C178.011 50.5073 177.703 50.386 177.283 50.386C176.77 50.386 176.359 50.5493 176.051 50.876C175.753 51.1933 175.603 51.618 175.603 52.15V55.216C175.603 55.8133 175.309 56.112 174.721 56.112ZM185.417 56.14C184.642 56.14 183.975 55.9953 183.415 55.706C182.855 55.4167 182.421 55.006 182.113 54.474C181.814 53.942 181.665 53.312 181.665 52.584C181.665 51.8747 181.809 51.254 182.099 50.722C182.397 50.19 182.803 49.7747 183.317 49.476C183.839 49.168 184.432 49.014 185.095 49.014C186.065 49.014 186.831 49.322 187.391 49.938C187.96 50.554 188.245 51.394 188.245 52.458C188.245 52.8033 188.021 52.976 187.573 52.976H183.345C183.475 54.1987 184.175 54.81 185.445 54.81C185.687 54.81 185.958 54.782 186.257 54.726C186.565 54.6607 186.854 54.5533 187.125 54.404C187.367 54.264 187.573 54.222 187.741 54.278C187.909 54.3247 188.025 54.4227 188.091 54.572C188.165 54.7213 188.175 54.8893 188.119 55.076C188.072 55.2533 187.941 55.4073 187.727 55.538C187.4 55.7433 187.022 55.8973 186.593 56C186.173 56.0933 185.781 56.14 185.417 56.14ZM185.165 50.204C184.651 50.204 184.236 50.3627 183.919 50.68C183.601 50.9973 183.41 51.4267 183.345 51.968H186.789C186.751 51.3987 186.593 50.9647 186.313 50.666C186.042 50.358 185.659 50.204 185.165 50.204ZM192.137 56.14C191.735 56.14 191.311 56.098 190.863 56.014C190.415 55.93 190.013 55.7853 189.659 55.58C189.463 55.468 189.341 55.3327 189.295 55.174C189.248 55.006 189.253 54.852 189.309 54.712C189.374 54.5627 189.477 54.4553 189.617 54.39C189.766 54.3247 189.939 54.3387 190.135 54.432C190.508 54.6093 190.858 54.7353 191.185 54.81C191.511 54.8753 191.833 54.908 192.151 54.908C192.599 54.908 192.93 54.8333 193.145 54.684C193.369 54.5253 193.481 54.32 193.481 54.068C193.481 53.676 193.191 53.424 192.613 53.312L191.213 53.046C190.027 52.822 189.435 52.206 189.435 51.198C189.435 50.75 189.556 50.3627 189.799 50.036C190.051 49.7093 190.396 49.4573 190.835 49.28C191.273 49.1027 191.777 49.014 192.347 49.014C193.168 49.014 193.901 49.196 194.545 49.56C194.722 49.6533 194.825 49.784 194.853 49.952C194.89 50.1107 194.871 50.2647 194.797 50.414C194.731 50.554 194.624 50.6567 194.475 50.722C194.325 50.778 194.153 50.7593 193.957 50.666C193.667 50.5167 193.387 50.4093 193.117 50.344C192.855 50.2787 192.603 50.246 192.361 50.246C191.903 50.246 191.563 50.3253 191.339 50.484C191.124 50.6427 191.017 50.8527 191.017 51.114C191.017 51.5247 191.283 51.7767 191.815 51.87L193.215 52.136C193.821 52.248 194.279 52.4533 194.587 52.752C194.904 53.0507 195.063 53.452 195.063 53.956C195.063 54.6373 194.797 55.174 194.265 55.566C193.733 55.9487 193.023 56.14 192.137 56.14ZM198.973 56.14C198.571 56.14 198.147 56.098 197.699 56.014C197.251 55.93 196.849 55.7853 196.495 55.58C196.299 55.468 196.177 55.3327 196.131 55.174C196.084 55.006 196.089 54.852 196.145 54.712C196.21 54.5627 196.313 54.4553 196.453 54.39C196.602 54.3247 196.775 54.3387 196.971 54.432C197.344 54.6093 197.694 54.7353 198.021 54.81C198.347 54.8753 198.669 54.908 198.987 54.908C199.435 54.908 199.766 54.8333 199.981 54.684C200.205 54.5253 200.317 54.32 200.317 54.068C200.317 53.676 200.027 53.424 199.449 53.312L198.049 53.046C196.863 52.822 196.271 52.206 196.271 51.198C196.271 50.75 196.392 50.3627 196.635 50.036C196.887 49.7093 197.232 49.4573 197.671 49.28C198.109 49.1027 198.613 49.014 199.183 49.014C200.004 49.014 200.737 49.196 201.381 49.56C201.558 49.6533 201.661 49.784 201.689 49.952C201.726 50.1107 201.707 50.2647 201.633 50.414C201.567 50.554 201.46 50.6567 201.311 50.722C201.161 50.778 200.989 50.7593 200.793 50.666C200.503 50.5167 200.223 50.4093 199.953 50.344C199.691 50.2787 199.439 50.246 199.197 50.246C198.739 50.246 198.399 50.3253 198.175 50.484C197.96 50.6427 197.853 50.8527 197.853 51.114C197.853 51.5247 198.119 51.7767 198.651 51.87L200.051 52.136C200.657 52.248 201.115 52.4533 201.423 52.752C201.74 53.0507 201.899 53.452 201.899 53.956C201.899 54.6373 201.633 55.174 201.101 55.566C200.569 55.9487 199.859 56.14 198.973 56.14Z" fill="#3085F4"/>
<path d="M205.496 16.144C205.027 16.144 204.664 16.016 204.408 15.76C204.152 15.504 204.024 15.136 204.024 14.656V6.208C204.024 5.728 204.152 5.36 204.408 5.104C204.664 4.848 205.032 4.72 205.512 4.72H209.448C210.728 4.72 211.715 5.05067 212.408 5.712C213.112 6.36267 213.464 7.264 213.464 8.416C213.464 9.568 213.112 10.4747 212.408 11.136C211.715 11.7867 210.728 12.112 209.448 12.112H206.968V14.656C206.968 15.136 206.84 15.504 206.584 15.76C206.339 16.016 205.976 16.144 205.496 16.144ZM206.968 9.856H208.936C210.088 9.856 210.664 9.376 210.664 8.416C210.664 7.456 210.088 6.976 208.936 6.976H206.968V9.856ZM216.264 16.144C215.294 16.144 214.808 15.664 214.808 14.704V9.408C214.808 8.45867 215.272 7.984 216.2 7.984C216.638 7.984 216.974 8.10667 217.208 8.352C217.454 8.59733 217.576 8.94933 217.576 9.408V9.456C217.758 8.99733 218.051 8.63467 218.456 8.368C218.862 8.10133 219.342 7.96267 219.896 7.952C220.206 7.94133 220.435 8.02133 220.584 8.192C220.744 8.352 220.83 8.656 220.84 9.104C220.84 9.488 220.76 9.792 220.6 10.016C220.44 10.24 220.136 10.3733 219.688 10.416L219.32 10.448C218.755 10.5013 218.344 10.6613 218.088 10.928C217.832 11.184 217.704 11.568 217.704 12.08V14.704C217.704 15.664 217.224 16.144 216.264 16.144ZM225.909 16.176C225.034 16.176 224.272 16.0107 223.621 15.68C222.97 15.3493 222.464 14.8747 222.101 14.256C221.738 13.6373 221.557 12.9067 221.557 12.064C221.557 11.2107 221.738 10.48 222.101 9.872C222.464 9.25333 222.97 8.77867 223.621 8.448C224.272 8.11733 225.034 7.952 225.909 7.952C226.784 7.952 227.546 8.11733 228.197 8.448C228.848 8.77867 229.349 9.25333 229.701 9.872C230.064 10.48 230.245 11.2107 230.245 12.064C230.245 12.9067 230.064 13.6373 229.701 14.256C229.349 14.8747 228.848 15.3493 228.197 15.68C227.546 16.0107 226.784 16.176 225.909 16.176ZM225.909 14.08C226.336 14.08 226.688 13.92 226.965 13.6C227.242 13.28 227.381 12.768 227.381 12.064C227.381 11.3493 227.242 10.8373 226.965 10.528C226.688 10.208 226.336 10.048 225.909 10.048C225.472 10.048 225.114 10.208 224.837 10.528C224.56 10.8373 224.421 11.3493 224.421 12.064C224.421 12.768 224.56 13.28 224.837 13.6C225.114 13.92 225.472 14.08 225.909 14.08Z" fill="#6C6C6C"/>
</svg>
