<svg width="235" height="67" viewBox="0 0 235 67" fill="none" xmlns="http://www.w3.org/2000/svg">
<path d="M42.3884 8.8473C45.6586 4.44707 51.8226 3.56605 56.2007 6.87314C60.6066 10.2013 61.5422 16.5133 58.2905 20.9715L34.6012 53.4504C31.3537 57.9028 25.1927 58.8982 20.7068 55.6953C16.0179 52.3475 14.9773 45.7305 18.4128 41.108L42.3884 8.8473Z" fill="#ADCCF7"/>
<path d="M5.63898 36.6626C2.52461 32.1244 3.63044 25.8516 8.10894 22.652C12.5874 19.4524 18.7427 20.5375 21.857 25.0757L33.2909 41.7369C36.4053 46.2751 35.2995 52.5478 30.821 55.7475C26.3425 58.9471 20.1872 57.8619 17.0729 53.3238L5.63898 36.6626Z" fill="#3085F4"/>
<path d="M29.6406 25.9611C32.94 21.5235 39.2461 20.5021 43.7763 23.6715C48.338 26.863 49.5547 32.9203 46.2785 37.4214L34.5427 53.5857C31.7891 57.5032 25.0213 59.3428 19.9672 55.9696C15.4163 52.6929 14.4429 46.4016 17.7903 41.8994L29.6406 25.9611Z" fill="#75B1FF"/>
<g filter="url(#filter0_d_2217_6726)">
<path d="M85.904 31.288C85.0933 31.288 84.432 31.1173 83.92 30.776C83.4293 30.4347 83.0133 29.8907 82.672 29.144L74.928 12.056C74.5867 11.3093 74.48 10.6373 74.608 10.04C74.736 9.44267 75.0347 8.984 75.504 8.664C75.9733 8.32267 76.56 8.152 77.264 8.152C78.1173 8.152 78.768 8.344 79.216 8.728C79.664 9.112 80.048 9.67733 80.368 10.424L86 23.48L91.632 10.392C91.952 9.64533 92.336 9.09067 92.784 8.728C93.232 8.344 93.8613 8.152 94.672 8.152C95.3333 8.152 95.888 8.32267 96.336 8.664C96.784 9.00533 97.0613 9.47467 97.168 10.072C97.296 10.648 97.1893 11.3093 96.848 12.056L89.072 29.144C88.752 29.8907 88.336 30.4347 87.824 30.776C87.3333 31.1173 86.6933 31.288 85.904 31.288ZM105.43 31C103.382 31 102.358 29.9867 102.358 27.96V11.48C102.358 9.45333 103.382 8.44 105.43 8.44H116.278C117.814 8.44 118.582 9.18667 118.582 10.68C118.582 12.216 117.814 12.984 116.278 12.984H107.99V17.272H115.574C117.11 17.272 117.878 18.0293 117.878 19.544C117.878 21.0587 117.11 21.816 115.574 21.816H107.99V26.456H116.278C117.814 26.456 118.582 27.2133 118.582 28.728C118.582 30.2427 117.814 31 116.278 31H105.43ZM126.654 31C125.652 31 124.894 30.7227 124.382 30.168C123.892 29.6133 123.678 28.9093 123.742 28.056C123.806 27.2027 124.19 26.3387 124.894 25.464L134.59 13.272H126.206C124.521 13.272 123.678 12.4613 123.678 10.84C123.678 9.24 124.521 8.44 126.206 8.44H138.686C139.689 8.44 140.446 8.71733 140.958 9.272C141.47 9.82667 141.684 10.5307 141.598 11.384C141.534 12.2373 141.15 13.1013 140.446 13.976L130.718 26.168H139.646C141.332 26.168 142.174 26.968 142.174 28.568C142.174 30.1893 141.332 31 139.646 31H126.654ZM150.078 31.288C149.14 31.288 148.414 31.032 147.902 30.52C147.39 30.008 147.134 29.2613 147.134 28.28V11.16C147.134 10.1787 147.39 9.432 147.902 8.92C148.414 8.408 149.14 8.152 150.078 8.152C151.017 8.152 151.742 8.408 152.254 8.92C152.766 9.432 153.022 10.1787 153.022 11.16V28.28C153.022 29.2613 152.766 30.008 152.254 30.52C151.764 31.032 151.038 31.288 150.078 31.288ZM167.919 31.288C166.98 31.288 166.255 31.032 165.743 30.52C165.231 30.008 164.975 29.272 164.975 28.312V13.24H159.951C158.33 13.24 157.519 12.44 157.519 10.84C157.519 9.24 158.33 8.44 159.951 8.44H175.887C177.508 8.44 178.319 9.24 178.319 10.84C178.319 12.44 177.508 13.24 175.887 13.24H170.863V28.312C170.863 29.272 170.607 30.008 170.095 30.52C169.604 31.032 168.879 31.288 167.919 31.288ZM181.342 31.288C180.339 31.288 179.603 30.9467 179.134 30.264C178.664 29.5813 178.664 28.728 179.134 27.704L187.102 10.552C187.486 9.72 187.955 9.112 188.51 8.728C189.064 8.344 189.715 8.152 190.462 8.152C191.187 8.152 191.827 8.344 192.382 8.728C192.936 9.112 193.406 9.72 193.79 10.552L201.758 27.704C202.248 28.7493 202.27 29.6133 201.822 30.296C201.374 30.9573 200.67 31.288 199.71 31.288C198.856 31.288 198.195 31.096 197.726 30.712C197.278 30.328 196.872 29.7093 196.51 28.856L195.486 26.424H185.406L184.382 28.856C183.998 29.7093 183.603 30.328 183.198 30.712C182.792 31.096 182.174 31.288 181.342 31.288ZM190.398 14.584L187.326 21.912H193.534L190.462 14.584H190.398Z" fill="#F0F4FA"/>
</g>
<g filter="url(#filter1_d_2217_6726)">
<path d="M79.768 56.126C78.6947 56.126 77.7893 55.9253 77.052 55.524C76.3147 55.1133 75.7547 54.53 75.372 53.774C74.9987 53.018 74.812 52.1173 74.812 51.072C74.812 50.036 75.0033 49.14 75.386 48.384C75.7687 47.6187 76.324 47.0307 77.052 46.62C77.78 46.2093 78.6527 46.004 79.67 46.004C80.23 46.004 80.776 46.0787 81.308 46.228C81.8493 46.368 82.3487 46.6013 82.806 46.928C82.9647 47.04 83.0533 47.18 83.072 47.348C83.1 47.5067 83.072 47.6607 82.988 47.81C82.9133 47.95 82.8013 48.048 82.652 48.104C82.5027 48.1507 82.3347 48.118 82.148 48.006C81.784 47.754 81.4013 47.572 81 47.46C80.5987 47.3387 80.1553 47.278 79.67 47.278C78.578 47.278 77.7473 47.6093 77.178 48.272C76.6087 48.9253 76.324 49.8587 76.324 51.072C76.324 52.3133 76.6133 53.256 77.192 53.9C77.78 54.544 78.6573 54.866 79.824 54.866C80.5333 54.866 81.238 54.7493 81.938 54.516V51.87H80.132C79.7307 51.87 79.53 51.6833 79.53 51.31C79.53 50.9553 79.7307 50.778 80.132 50.778H82.554C82.9553 50.778 83.156 50.9787 83.156 51.38V54.908C83.156 55.2627 83.0253 55.4913 82.764 55.594C82.3627 55.7527 81.8913 55.8833 81.35 55.986C80.8087 56.0793 80.2813 56.126 79.768 56.126ZM85.9482 56.098C85.4722 56.098 85.2342 55.86 85.2342 55.384V49.784C85.2342 49.308 85.4629 49.07 85.9202 49.07C86.3776 49.07 86.6062 49.308 86.6062 49.784V50.386C86.7929 49.966 87.0729 49.644 87.4462 49.42C87.8289 49.196 88.2909 49.0653 88.8322 49.028C89.1776 49 89.3642 49.1867 89.3922 49.588C89.4296 49.9987 89.2289 50.2227 88.7902 50.26L88.5242 50.288C87.2829 50.4093 86.6622 51.0487 86.6622 52.206V55.384C86.6622 55.86 86.4242 56.098 85.9482 56.098ZM93.3292 56.126C92.6385 56.126 92.0412 55.9813 91.5372 55.692C91.0332 55.4027 90.6412 54.9967 90.3612 54.474C90.0905 53.942 89.9552 53.312 89.9552 52.584C89.9552 51.856 90.0905 51.2307 90.3612 50.708C90.6412 50.176 91.0332 49.7653 91.5372 49.476C92.0412 49.1867 92.6385 49.042 93.3292 49.042C94.0012 49.042 94.5892 49.1867 95.0932 49.476C95.5972 49.7653 95.9892 50.176 96.2692 50.708C96.5492 51.2307 96.6892 51.856 96.6892 52.584C96.6892 53.312 96.5492 53.942 96.2692 54.474C95.9892 54.9967 95.5972 55.4027 95.0932 55.692C94.5892 55.9813 94.0012 56.126 93.3292 56.126ZM93.3292 55.034C93.9079 55.034 94.3745 54.824 94.7292 54.404C95.0839 53.984 95.2612 53.3773 95.2612 52.584C95.2612 51.7907 95.0839 51.1887 94.7292 50.778C94.3745 50.358 93.9079 50.148 93.3292 50.148C92.7412 50.148 92.2699 50.358 91.9152 50.778C91.5605 51.1887 91.3832 51.7907 91.3832 52.584C91.3832 53.3773 91.5605 53.984 91.9152 54.404C92.2699 54.824 92.7412 55.034 93.3292 55.034ZM100.646 56.098C100.235 56.098 99.9508 55.8927 99.7922 55.482L97.7342 50.036C97.6222 49.756 97.6222 49.5273 97.7342 49.35C97.8555 49.1633 98.0562 49.07 98.3362 49.07C98.5042 49.07 98.6395 49.112 98.7422 49.196C98.8448 49.2707 98.9382 49.42 99.0222 49.644L100.688 54.348L102.424 49.588C102.555 49.2427 102.788 49.07 103.124 49.07C103.469 49.07 103.703 49.2427 103.824 49.588L105.532 54.376L107.24 49.616C107.315 49.4013 107.408 49.2567 107.52 49.182C107.641 49.1073 107.777 49.07 107.926 49.07C108.206 49.07 108.383 49.168 108.458 49.364C108.542 49.56 108.537 49.784 108.444 50.036L106.386 55.482C106.218 55.8927 105.938 56.098 105.546 56.098C105.126 56.098 104.841 55.8927 104.692 55.482L103.082 51.114L101.486 55.482C101.337 55.8927 101.057 56.098 100.646 56.098ZM115.295 58.618C115.034 58.618 114.852 58.52 114.749 58.324C114.656 58.1373 114.665 57.918 114.777 57.666L115.603 55.818L113.111 50.036C112.999 49.784 112.995 49.56 113.097 49.364C113.209 49.168 113.424 49.07 113.741 49.07C113.909 49.07 114.045 49.112 114.147 49.196C114.259 49.28 114.357 49.4247 114.441 49.63L116.359 54.362L118.305 49.63C118.389 49.4153 118.487 49.2707 118.599 49.196C118.711 49.112 118.865 49.07 119.061 49.07C119.313 49.07 119.486 49.168 119.579 49.364C119.673 49.56 119.668 49.7793 119.565 50.022L116.065 58.072C115.972 58.2867 115.865 58.4313 115.743 58.506C115.631 58.5807 115.482 58.618 115.295 58.618ZM123.804 56.126C123.113 56.126 122.516 55.9813 122.012 55.692C121.508 55.4027 121.116 54.9967 120.836 54.474C120.565 53.942 120.43 53.312 120.43 52.584C120.43 51.856 120.565 51.2307 120.836 50.708C121.116 50.176 121.508 49.7653 122.012 49.476C122.516 49.1867 123.113 49.042 123.804 49.042C124.476 49.042 125.064 49.1867 125.568 49.476C126.072 49.7653 126.464 50.176 126.744 50.708C127.024 51.2307 127.164 51.856 127.164 52.584C127.164 53.312 127.024 53.942 126.744 54.474C126.464 54.9967 126.072 55.4027 125.568 55.692C125.064 55.9813 124.476 56.126 123.804 56.126ZM123.804 55.034C124.382 55.034 124.849 54.824 125.204 54.404C125.558 53.984 125.736 53.3773 125.736 52.584C125.736 51.7907 125.558 51.1887 125.204 50.778C124.849 50.358 124.382 50.148 123.804 50.148C123.216 50.148 122.744 50.358 122.39 50.778C122.035 51.1887 121.858 51.7907 121.858 52.584C121.858 53.3773 122.035 53.984 122.39 54.404C122.744 54.824 123.216 55.034 123.804 55.034ZM131.188 56.126C129.536 56.126 128.71 55.2067 128.71 53.368V49.784C128.71 49.308 128.943 49.07 129.41 49.07C129.886 49.07 130.124 49.308 130.124 49.784V53.382C130.124 53.9327 130.236 54.3387 130.46 54.6C130.684 54.8613 131.038 54.992 131.524 54.992C132.056 54.992 132.485 54.8147 132.812 54.46C133.148 54.1053 133.316 53.6293 133.316 53.032V49.784C133.316 49.308 133.554 49.07 134.03 49.07C134.496 49.07 134.73 49.308 134.73 49.784V55.384C134.73 55.86 134.501 56.098 134.044 56.098C133.586 56.098 133.358 55.86 133.358 55.384V54.908C133.134 55.3093 132.835 55.6127 132.462 55.818C132.088 56.0233 131.664 56.126 131.188 56.126ZM137.437 56.098C136.961 56.098 136.723 55.86 136.723 55.384V49.784C136.723 49.308 136.951 49.07 137.409 49.07C137.866 49.07 138.095 49.308 138.095 49.784V50.386C138.281 49.966 138.561 49.644 138.935 49.42C139.317 49.196 139.779 49.0653 140.321 49.028C140.666 49 140.853 49.1867 140.881 49.588C140.918 49.9987 140.717 50.2227 140.279 50.26L140.013 50.288C138.771 50.4093 138.151 51.0487 138.151 52.206V55.384C138.151 55.86 137.913 56.098 137.437 56.098ZM149.305 56.126C148.791 56.126 148.334 56.014 147.933 55.79C147.531 55.5567 147.228 55.244 147.023 54.852V55.384C147.023 55.86 146.794 56.098 146.337 56.098C145.87 56.098 145.637 55.86 145.637 55.384V46.746C145.637 46.27 145.87 46.032 146.337 46.032C146.813 46.032 147.051 46.27 147.051 46.746V50.274C147.256 49.9007 147.555 49.602 147.947 49.378C148.348 49.154 148.801 49.042 149.305 49.042C149.911 49.042 150.439 49.1867 150.887 49.476C151.344 49.7653 151.694 50.176 151.937 50.708C152.189 51.2307 152.315 51.856 152.315 52.584C152.315 53.312 152.189 53.942 151.937 54.474C151.694 55.006 151.344 55.4167 150.887 55.706C150.439 55.986 149.911 56.126 149.305 56.126ZM148.955 55.034C149.543 55.034 150.009 54.824 150.355 54.404C150.709 53.984 150.887 53.3773 150.887 52.584C150.887 51.7907 150.709 51.1887 150.355 50.778C150.009 50.358 149.543 50.148 148.955 50.148C148.367 50.148 147.895 50.358 147.541 50.778C147.195 51.1887 147.023 51.7907 147.023 52.584C147.023 53.3773 147.195 53.984 147.541 54.404C147.895 54.824 148.367 55.034 148.955 55.034ZM156.344 56.126C154.692 56.126 153.866 55.2067 153.866 53.368V49.784C153.866 49.308 154.099 49.07 154.566 49.07C155.042 49.07 155.28 49.308 155.28 49.784V53.382C155.28 53.9327 155.392 54.3387 155.616 54.6C155.84 54.8613 156.195 54.992 156.68 54.992C157.212 54.992 157.641 54.8147 157.968 54.46C158.304 54.1053 158.472 53.6293 158.472 53.032V49.784C158.472 49.308 158.71 49.07 159.186 49.07C159.653 49.07 159.886 49.308 159.886 49.784V55.384C159.886 55.86 159.657 56.098 159.2 56.098C158.743 56.098 158.514 55.86 158.514 55.384V54.908C158.29 55.3093 157.991 55.6127 157.618 55.818C157.245 56.0233 156.82 56.126 156.344 56.126ZM164.273 56.126C163.862 56.126 163.437 56.0793 162.999 55.986C162.56 55.8927 162.163 55.734 161.809 55.51C161.65 55.4167 161.552 55.3 161.515 55.16C161.477 55.02 161.487 54.8893 161.543 54.768C161.599 54.6467 161.687 54.5627 161.809 54.516C161.939 54.46 162.084 54.474 162.243 54.558C162.607 54.754 162.957 54.894 163.293 54.978C163.629 55.062 163.96 55.104 164.287 55.104C164.781 55.104 165.155 55.0153 165.407 54.838C165.659 54.6607 165.785 54.4227 165.785 54.124C165.785 53.8813 165.701 53.6947 165.533 53.564C165.365 53.424 165.113 53.3167 164.777 53.242L163.447 52.976C162.271 52.7333 161.683 52.1267 161.683 51.156C161.683 50.512 161.939 49.9987 162.453 49.616C162.966 49.2333 163.638 49.042 164.469 49.042C165.309 49.042 166.032 49.2473 166.639 49.658C166.788 49.7513 166.877 49.868 166.905 50.008C166.933 50.1387 166.914 50.2647 166.849 50.386C166.783 50.498 166.685 50.5773 166.555 50.624C166.433 50.6707 166.289 50.652 166.121 50.568C165.841 50.4 165.561 50.2787 165.281 50.204C165.001 50.12 164.73 50.078 164.469 50.078C163.983 50.078 163.615 50.1713 163.363 50.358C163.111 50.5353 162.985 50.778 162.985 51.086C162.985 51.5527 163.293 51.8513 163.909 51.982L165.239 52.248C165.845 52.3693 166.303 52.5747 166.611 52.864C166.928 53.1533 167.087 53.5453 167.087 54.04C167.087 54.6933 166.83 55.2067 166.317 55.58C165.803 55.944 165.122 56.126 164.273 56.126ZM169.36 47.642C169.08 47.642 168.861 47.572 168.702 47.432C168.553 47.292 168.478 47.096 168.478 46.844C168.478 46.312 168.772 46.046 169.36 46.046C169.948 46.046 170.242 46.312 170.242 46.844C170.242 47.376 169.948 47.642 169.36 47.642ZM169.36 56.084C168.893 56.084 168.66 55.8273 168.66 55.314V49.854C168.66 49.35 168.893 49.098 169.36 49.098C169.836 49.098 170.074 49.35 170.074 49.854V55.314C170.074 55.8273 169.836 56.084 169.36 56.084ZM172.764 56.098C172.298 56.098 172.064 55.86 172.064 55.384V49.784C172.064 49.308 172.293 49.07 172.75 49.07C173.208 49.07 173.436 49.308 173.436 49.784V50.302C173.67 49.8913 173.987 49.5787 174.388 49.364C174.799 49.1493 175.256 49.042 175.76 49.042C177.375 49.042 178.182 49.9567 178.182 51.786V55.384C178.182 55.86 177.949 56.098 177.482 56.098C177.006 56.098 176.768 55.86 176.768 55.384V51.87C176.768 51.282 176.652 50.8527 176.418 50.582C176.194 50.3113 175.84 50.176 175.354 50.176C174.785 50.176 174.328 50.358 173.982 50.722C173.646 51.0767 173.478 51.548 173.478 52.136V55.384C173.478 55.86 173.24 56.098 172.764 56.098ZM183.337 56.126C182.217 56.126 181.335 55.8133 180.691 55.188C180.047 54.5533 179.725 53.69 179.725 52.598C179.725 51.898 179.865 51.282 180.145 50.75C180.434 50.2087 180.831 49.7887 181.335 49.49C181.839 49.1913 182.417 49.042 183.071 49.042C184.013 49.042 184.755 49.3453 185.297 49.952C185.838 50.5493 186.109 51.3753 186.109 52.43C186.109 52.7473 185.922 52.906 185.549 52.906H181.097C181.199 54.3247 181.951 55.034 183.351 55.034C183.631 55.034 183.925 55.0013 184.233 54.936C184.541 54.8613 184.839 54.7307 185.129 54.544C185.325 54.432 185.493 54.3947 185.633 54.432C185.782 54.46 185.889 54.5393 185.955 54.67C186.02 54.7913 186.029 54.9313 185.983 55.09C185.945 55.2393 185.838 55.37 185.661 55.482C185.343 55.6967 184.97 55.86 184.541 55.972C184.121 56.0747 183.719 56.126 183.337 56.126ZM183.127 50.036C182.539 50.036 182.072 50.218 181.727 50.582C181.381 50.946 181.171 51.4313 181.097 52.038H184.919C184.891 51.4033 184.723 50.9133 184.415 50.568C184.107 50.2133 183.677 50.036 183.127 50.036ZM190.044 56.126C189.634 56.126 189.209 56.0793 188.77 55.986C188.332 55.8927 187.935 55.734 187.58 55.51C187.422 55.4167 187.324 55.3 187.286 55.16C187.249 55.02 187.258 54.8893 187.314 54.768C187.37 54.6467 187.459 54.5627 187.58 54.516C187.711 54.46 187.856 54.474 188.014 54.558C188.378 54.754 188.728 54.894 189.064 54.978C189.4 55.062 189.732 55.104 190.058 55.104C190.553 55.104 190.926 55.0153 191.178 54.838C191.43 54.6607 191.556 54.4227 191.556 54.124C191.556 53.8813 191.472 53.6947 191.304 53.564C191.136 53.424 190.884 53.3167 190.548 53.242L189.218 52.976C188.042 52.7333 187.454 52.1267 187.454 51.156C187.454 50.512 187.711 49.9987 188.224 49.616C188.738 49.2333 189.41 49.042 190.24 49.042C191.08 49.042 191.804 49.2473 192.41 49.658C192.56 49.7513 192.648 49.868 192.676 50.008C192.704 50.1387 192.686 50.2647 192.62 50.386C192.555 50.498 192.457 50.5773 192.326 50.624C192.205 50.6707 192.06 50.652 191.892 50.568C191.612 50.4 191.332 50.2787 191.052 50.204C190.772 50.12 190.502 50.078 190.24 50.078C189.755 50.078 189.386 50.1713 189.134 50.358C188.882 50.5353 188.756 50.778 188.756 51.086C188.756 51.5527 189.064 51.8513 189.68 51.982L191.01 52.248C191.617 52.3693 192.074 52.5747 192.382 52.864C192.7 53.1533 192.858 53.5453 192.858 54.04C192.858 54.6933 192.602 55.2067 192.088 55.58C191.575 55.944 190.894 56.126 190.044 56.126ZM196.826 56.126C196.415 56.126 195.99 56.0793 195.552 55.986C195.113 55.8927 194.716 55.734 194.361 55.51C194.203 55.4167 194.105 55.3 194.068 55.16C194.03 55.02 194.04 54.8893 194.096 54.768C194.152 54.6467 194.24 54.5627 194.361 54.516C194.492 54.46 194.637 54.474 194.796 54.558C195.16 54.754 195.51 54.894 195.846 54.978C196.182 55.062 196.513 55.104 196.84 55.104C197.334 55.104 197.708 55.0153 197.96 54.838C198.212 54.6607 198.338 54.4227 198.338 54.124C198.338 53.8813 198.254 53.6947 198.086 53.564C197.918 53.424 197.666 53.3167 197.33 53.242L196 52.976C194.824 52.7333 194.236 52.1267 194.236 51.156C194.236 50.512 194.492 49.9987 195.006 49.616C195.519 49.2333 196.191 49.042 197.022 49.042C197.862 49.042 198.585 49.2473 199.192 49.658C199.341 49.7513 199.43 49.868 199.458 50.008C199.486 50.1387 199.467 50.2647 199.402 50.386C199.336 50.498 199.238 50.5773 199.108 50.624C198.986 50.6707 198.842 50.652 198.674 50.568C198.394 50.4 198.114 50.2787 197.834 50.204C197.554 50.12 197.283 50.078 197.022 50.078C196.536 50.078 196.168 50.1713 195.916 50.358C195.664 50.5353 195.538 50.778 195.538 51.086C195.538 51.5527 195.846 51.8513 196.462 51.982L197.792 52.248C198.398 52.3693 198.856 52.5747 199.164 52.864C199.481 53.1533 199.64 53.5453 199.64 54.04C199.64 54.6933 199.383 55.2067 198.87 55.58C198.356 55.944 197.675 56.126 196.826 56.126Z" fill="#DFEBFB"/>
</g>
<g filter="url(#filter2_d_2217_6726)">
<path d="M205.496 16.144C205.027 16.144 204.664 16.016 204.408 15.76C204.152 15.504 204.024 15.136 204.024 14.656V6.208C204.024 5.728 204.152 5.36 204.408 5.104C204.664 4.848 205.032 4.72 205.512 4.72H209.448C210.728 4.72 211.715 5.05067 212.408 5.712C213.112 6.36267 213.464 7.264 213.464 8.416C213.464 9.568 213.112 10.4747 212.408 11.136C211.715 11.7867 210.728 12.112 209.448 12.112H206.968V14.656C206.968 15.136 206.84 15.504 206.584 15.76C206.339 16.016 205.976 16.144 205.496 16.144ZM206.968 9.856H208.936C210.088 9.856 210.664 9.376 210.664 8.416C210.664 7.456 210.088 6.976 208.936 6.976H206.968V9.856ZM216.264 16.144C215.294 16.144 214.808 15.664 214.808 14.704V9.408C214.808 8.45867 215.272 7.984 216.2 7.984C216.638 7.984 216.974 8.10667 217.208 8.352C217.454 8.59733 217.576 8.94933 217.576 9.408V9.456C217.758 8.99733 218.051 8.63467 218.456 8.368C218.862 8.10133 219.342 7.96267 219.896 7.952C220.206 7.94133 220.435 8.02133 220.584 8.192C220.744 8.352 220.83 8.656 220.84 9.104C220.84 9.488 220.76 9.792 220.6 10.016C220.44 10.24 220.136 10.3733 219.688 10.416L219.32 10.448C218.755 10.5013 218.344 10.6613 218.088 10.928C217.832 11.184 217.704 11.568 217.704 12.08V14.704C217.704 15.664 217.224 16.144 216.264 16.144ZM225.909 16.176C225.034 16.176 224.272 16.0107 223.621 15.68C222.97 15.3493 222.464 14.8747 222.101 14.256C221.738 13.6373 221.557 12.9067 221.557 12.064C221.557 11.2107 221.738 10.48 222.101 9.872C222.464 9.25333 222.97 8.77867 223.621 8.448C224.272 8.11733 225.034 7.952 225.909 7.952C226.784 7.952 227.546 8.11733 228.197 8.448C228.848 8.77867 229.349 9.25333 229.701 9.872C230.064 10.48 230.245 11.2107 230.245 12.064C230.245 12.9067 230.064 13.6373 229.701 14.256C229.349 14.8747 228.848 15.3493 228.197 15.68C227.546 16.0107 226.784 16.176 225.909 16.176ZM225.909 14.08C226.336 14.08 226.688 13.92 226.965 13.6C227.242 13.28 227.381 12.768 227.381 12.064C227.381 11.3493 227.242 10.8373 226.965 10.528C226.688 10.208 226.336 10.048 225.909 10.048C225.472 10.048 225.114 10.208 224.837 10.528C224.56 10.8373 224.421 11.3493 224.421 12.064C224.421 12.768 224.56 13.28 224.837 13.6C225.114 13.92 225.472 14.08 225.909 14.08Z" fill="white"/>
</g>
<defs>
<filter id="filter0_d_2217_6726" x="70.416" y="8.1521" width="136.078" height="31.136" filterUnits="userSpaceOnUse" color-interpolation-filters="sRGB">
<feFlood flood-opacity="0" result="BackgroundImageFix"/>
<feColorMatrix in="SourceAlpha" type="matrix" values="0 0 0 0 0 0 0 0 0 0 0 0 0 0 0 0 0 0 127 0" result="hardAlpha"/>
<feOffset dy="4"/>
<feGaussianBlur stdDeviation="2"/>
<feComposite in2="hardAlpha" operator="out"/>
<feColorMatrix type="matrix" values="0 0 0 0 0 0 0 0 0 0 0 0 0 0 0 0 0 0 0.12 0"/>
<feBlend mode="normal" in2="BackgroundImageFix" result="effect1_dropShadow_2217_6726"/>
<feBlend mode="normal" in="SourceGraphic" in2="effect1_dropShadow_2217_6726" result="shape"/>
</filter>
<filter id="filter1_d_2217_6726" x="70.812" y="46.0039" width="132.828" height="20.614" filterUnits="userSpaceOnUse" color-interpolation-filters="sRGB">
<feFlood flood-opacity="0" result="BackgroundImageFix"/>
<feColorMatrix in="SourceAlpha" type="matrix" values="0 0 0 0 0 0 0 0 0 0 0 0 0 0 0 0 0 0 127 0" result="hardAlpha"/>
<feOffset dy="4"/>
<feGaussianBlur stdDeviation="2"/>
<feComposite in2="hardAlpha" operator="out"/>
<feColorMatrix type="matrix" values="0 0 0 0 0 0 0 0 0 0 0 0 0 0 0 0 0 0 0.12 0"/>
<feBlend mode="normal" in2="BackgroundImageFix" result="effect1_dropShadow_2217_6726"/>
<feBlend mode="normal" in="SourceGraphic" in2="effect1_dropShadow_2217_6726" result="shape"/>
</filter>
<filter id="filter2_d_2217_6726" x="200.024" y="4.71997" width="34.2211" height="19.4561" filterUnits="userSpaceOnUse" color-interpolation-filters="sRGB">
<feFlood flood-opacity="0" result="BackgroundImageFix"/>
<feColorMatrix in="SourceAlpha" type="matrix" values="0 0 0 0 0 0 0 0 0 0 0 0 0 0 0 0 0 0 127 0" result="hardAlpha"/>
<feOffset dy="4"/>
<feGaussianBlur stdDeviation="2"/>
<feComposite in2="hardAlpha" operator="out"/>
<feColorMatrix type="matrix" values="0 0 0 0 0 0 0 0 0 0 0 0 0 0 0 0 0 0 0.12 0"/>
<feBlend mode="normal" in2="BackgroundImageFix" result="effect1_dropShadow_2217_6726"/>
<feBlend mode="normal" in="SourceGraphic" in2="effect1_dropShadow_2217_6726" result="shape"/>
</filter>
</defs>
</svg>
